<svg width="19" height="19" viewBox="0 0 19 19" fill="none" xmlns="http://www.w3.org/2000/svg">
<path d="M9.31 18.62C14.4517 18.62 18.62 14.4517 18.62 9.31C18.62 4.1682 14.4517 0 9.31 0C4.1682 0 0 4.1682 0 9.31C0 14.4517 4.1682 18.62 9.31 18.62Z" fill="#9282FA" fill-opacity="0.4"/>
<path fill-rule="evenodd" clip-rule="evenodd" d="M9.31007 4.88776C9.69569 4.88776 10.0083 5.20039 10.0083 5.58601V9.02073L12.1312 11.1438C12.404 11.4165 12.404 11.8585 12.1312 12.1312C11.8586 12.4039 11.4165 12.4039 11.1439 12.1312L8.81638 9.80369C8.68536 9.67283 8.61182 9.49518 8.61182 9.31001V5.58601C8.61182 5.20039 8.92445 4.88776 9.31007 4.88776Z" fill="#9282FA"/>
</svg>
